<svg viewBox="0 0 1024 1024" xmlns="http://www.w3.org/2000/svg"><path d="M873.572 71.87H148.757c-42.457 0-76.875 34.418-76.875 76.875V873.56c0 42.457 34.418 76.875 76.875 76.875h724.815c42.457 0 76.875-34.418 76.875-76.875V148.745c0-42.457-34.418-76.875-76.875-76.875zm-94.844 71.88c55.14 0 99.837 44.7 99.837 99.838s-44.7 99.837-99.837 99.837-99.837-44.7-99.837-99.837 44.7-99.837 99.838-99.837zm-535.126 0c55.14 0 99.837 44.7 99.837 99.838s-44.7 99.837-99.838 99.837-99.837-44.7-99.837-99.837c.002-55.14 44.7-99.837 99.837-99.837zm0 734.802c-55.14 0-99.837-44.7-99.837-99.837s44.7-99.837 99.837-99.837 99.837 44.7 99.837 99.837-44.7 99.837-99.838 99.837zm0-267.563c-55.138 0-99.836-44.7-99.836-99.838s44.7-99.837 99.837-99.837 99.837 44.7 99.837 99.837-44.7 99.837-99.837 99.837zM778.73 878.55c-55.14 0-99.837-44.7-99.837-99.837s44.7-99.837 99.838-99.837 99.837 44.7 99.837 99.837c-.002 55.14-44.7 99.837-99.837 99.837zm0-267.563c-55.138 0-99.836-44.7-99.836-99.838s44.7-99.837 99.837-99.837 99.836 44.7 99.836 99.837-44.7 99.837-99.837 99.837z"/></svg>
